<svg width="576" height="448" viewBox="0 0 576 448" fill="none" xmlns="http://www.w3.org/2000/svg">
<path d="M224 326.857C186.401 326.857 150.973 320.094 119.857 308.157C88.482 332.706 49.988 347.665 9.093 351.953C8.79734 351.984 8.50028 352 8.203 352C4.467 352 1.092 349.502 0.186 345.939C-0.794 341.978 2.274 339.54 5.312 336.634C20.329 322.195 38.534 310.844 45.654 262.337C17.015 234.886 0 200.622 0 163.429C0 73.16 100.297 0 224 0C347.703 0 448 73.159 448 163.429C447.999 253.761 347.703 326.857 224 326.857ZM571.067 434.031C557.123 420.904 540.218 410.585 533.607 366.488C602.415 301.92 585.778 209.553 495.933 159.423C495.964 160.757 495.999 162.09 495.999 163.429C495.999 285.922 366.416 379.823 211.747 374.651C249.868 405.612 305.736 425.143 367.999 425.143C402.913 425.143 435.81 418.995 464.703 408.143C493.837 430.46 529.581 444.059 567.556 447.957C571.342 448.352 574.919 445.984 575.826 442.49C576.737 438.889 573.888 436.673 571.067 434.031Z" fill="black"/>
</svg>
