<svg width="504" height="385" viewBox="0 0 504 385" fill="none" xmlns="http://www.w3.org/2000/svg">
<path d="M497.002 209.021L329.001 377.021C314.001 392.021 288.001 381.521 288.001 360.021V264.021H152C138.7 264.021 128 253.321 128 240.021V144.021C128 130.721 138.7 120.021 152 120.021H288.001V24.0212C288.001 2.62127 313.901 -7.97872 329.001 7.02126L497.002 175.021C506.302 184.421 506.302 199.621 497.002 209.021ZM192.001 372.021V332.021C192.001 325.421 186.601 320.021 180.001 320.021H96.0003C78.3002 320.021 64.0002 305.721 64.0002 288.021V96.0212C64.0002 78.3212 78.3002 64.0212 96.0003 64.0212H180.001C186.601 64.0212 192.001 58.6212 192.001 52.0212V12.0213C192.001 5.42126 186.601 0.0212686 180.001 0.0212686H96.0003C43.0001 0.0212686 0 43.0212 0 96.0212V288.021C0 341.021 43.0001 384.021 96.0003 384.021H180.001C186.601 384.021 192.001 378.621 192.001 372.021Z" fill="black"/>
</svg>
