<svg width="512" height="512" viewBox="0 0 512 512" fill="none" xmlns="http://www.w3.org/2000/svg">
<path d="M423.309 291.025L402.221 285C431.798 243.89 436 202.294 436 180C436 80.649 355.484 0 256 0C156.649 0 76 80.516 76 180C76 202.299 80.198 243.884 109.779 285L88.691 291.025C21.28 310.285 0 371.59 0 408.605V434.286C0 477.138 34.862 512 77.714 512H434.285C477.138 512 512 477.138 512 434.286V408.605C512 372.358 491.275 310.444 423.309 291.025ZM256 48C328.902 48 388 107.099 388 180C388 252.901 328.902 312 256 312C183.098 312 124 252.901 124 180C124 107.099 183.098 48 256 48ZM464 434.286C464 450.696 450.696 464 434.286 464H77.714C61.304 464 48 450.696 48 434.286V408.605C48 375.438 69.987 346.289 101.878 337.178L147.981 324.006C162.683 335.058 200.427 360 256 360C311.573 360 349.317 335.058 364.019 324.006L410.122 337.178C442.013 346.29 464 375.438 464 408.605V434.286Z" fill="black"/>
</svg>
